<svg xmlns="http://www.w3.org/2000/svg" width="800.003" height="618.866" viewBox="0 0 800.003 618.866" xmlns:xlink="http://www.w3.org/1999/xlink" role="img" artist="Katerina Limpitsouni" source="https://undraw.co/"><g transform="translate(-560 -230.997)"><path d="M15.18,488.765a1.456,1.456,0,0,0,1.308,1.575H668.472a1.6,1.6,0,0,0,0-3.15H16.488a1.456,1.456,0,0,0-1.308,1.575Z" transform="translate(621.678 359.523)" fill="#d6d6e3"/><path d="M353.105,370.945a27.478,27.478,0,0,1-54.387,0H229.146V524.776H422.677V370.945H353.105Z" transform="translate(634.09 321.938)" fill="#d6d6e3"/><path d="M789.214,487.736H10.789A10.8,10.8,0,0,1,0,476.947V32.7A10.8,10.8,0,0,1,10.789,21.911H789.214A10.8,10.8,0,0,1,800,32.7V476.947a10.8,10.8,0,0,1-10.789,10.789Z" transform="translate(560 209.086)" fill="#090814"/><rect width="761.747" height="429.819" transform="translate(580.088 249)" fill="#fff"/><circle cx="4.283" cy="4.283" r="4.283" transform="translate(648.777 266.551)" fill="#4E80EE"/><circle cx="4.283" cy="4.283" r="4.283" transform="translate(665.036 266.551)" fill="#4E80EE"/><circle cx="4.283" cy="4.283" r="4.283" transform="translate(681.294 266.551)" fill="#4E80EE"/><path d="M713.3,268.912H596.492a6.566,6.566,0,1,1,0-13.132H713.3a6.566,6.566,0,1,1,0,13.132Z" transform="translate(58.852 108.377)" fill="#ccc"/><path d="M713.3,243.684H596.492a6.566,6.566,0,1,1,0-13.132H713.3a6.566,6.566,0,1,1,0,13.132Z" transform="translate(58.852 108.377)" fill="#ccc"/><path d="M629.668,293.794H596.492a6.566,6.566,0,1,1,0-13.132h33.176a6.566,6.566,0,0,1,0,13.132Z" transform="translate(58.852 108.377)" fill="#ccc"/><path d="M713.3,501.912H596.492a6.566,6.566,0,1,1,0-13.132H713.3a6.566,6.566,0,1,1,0,13.132Z" transform="translate(58.852 108.377)" fill="#ccc"/><path d="M713.3,476.684H596.492a6.566,6.566,0,0,1,0-13.132H713.3a6.566,6.566,0,0,1,0,13.132Z" transform="translate(58.852 108.377)" fill="#ccc"/><path d="M629.668,526.794H596.492a6.566,6.566,0,0,1,0-13.132h33.176a6.566,6.566,0,1,1,0,13.132Z" transform="translate(58.852 108.377)" fill="#ccc"/><path d="M667.048,400.36a6.619,6.619,0,0,1-4.665-1.909L631.456,367.91a6.446,6.446,0,0,1,0-9.173l30.8-30.418a6.833,6.833,0,0,1,9.61.03h0a6.825,6.825,0,0,1,0,9.64L648.98,360.88a3.813,3.813,0,0,0,0,5.386l22.764,22.765a6.634,6.634,0,0,1-4.7,11.329Z" transform="translate(102.235 123.641)" fill="#4E80EE"/><path d="M858.446,268.912H741.638a6.566,6.566,0,1,1,0-13.132H858.446a6.566,6.566,0,1,1,0,13.132Z" transform="translate(58.852 108.377)" fill="#ccc"/><path d="M858.446,293.794h-203.2a6.566,6.566,0,0,1,0-13.132h203.2a6.566,6.566,0,0,1,0,13.132Z" transform="translate(58.852 108.377)" fill="#ccc"/><path d="M777.579,244.03H744.4a6.566,6.566,0,1,1,0-13.132h33.176a6.566,6.566,0,0,1,0,13.132Z" transform="translate(58.852 108.377)" fill="#ccc"/><path d="M858.446,501.912H741.638a6.566,6.566,0,0,1,0-13.132H858.446a6.566,6.566,0,1,1,0,13.132Z" transform="translate(58.852 108.377)" fill="#ccc"/><path d="M858.446,526.794h-203.2a6.566,6.566,0,0,1,0-13.132h203.2a6.566,6.566,0,1,1,0,13.132Z" transform="translate(58.852 108.377)" fill="#ccc"/><path d="M777.579,477.03H744.4a6.566,6.566,0,1,1,0-13.132h33.176a6.566,6.566,0,1,1,0,13.132Z" transform="translate(58.852 108.377)" fill="#ccc"/><path d="M749.9,400.36a6.634,6.634,0,0,1-4.7-11.329l22.764-22.765a3.813,3.813,0,0,0,0-5.386L745.078,337.99a6.817,6.817,0,0,1,0-9.64h0a6.833,6.833,0,0,1,9.61-.03l30.8,30.418a6.446,6.446,0,0,1,0,9.173l-30.927,30.541A6.62,6.62,0,0,1,749.9,400.36Z" transform="translate(68.665 123.641)" fill="#4E80EE"/><path d="M807.135,293.794h-153.5c-2.739,0-4.96-2.94-4.96-6.566s2.221-6.566,4.96-6.566h153.5c2.739,0,4.96,2.94,4.96,6.566S809.875,293.794,807.135,293.794Z" transform="translate(460.852 139.943)" fill="#4E80EE"/><g transform="translate(0 0.172)"><circle cx="32" cy="32" r="32" transform="translate(1031 395)" fill="#f2f2f2"/><path d="M32,2A30.008,30.008,0,0,0,20.323,59.643,30.008,30.008,0,0,0,43.677,4.357,29.81,29.81,0,0,0,32,2m0-2A32,32,0,1,1,0,32,32,32,0,0,1,32,0Z" transform="translate(1031 395)" fill="#090814"/><path d="M967.127,342.526a2.9,2.9,0,0,1-2.32-1.16l-7.113-9.484a2.9,2.9,0,1,1,4.641-3.48l4.654,6.2,11.953-17.929a2.9,2.9,0,1,1,4.826,3.218l-14.226,21.34a2.9,2.9,0,0,1-2.333,1.291Z" transform="translate(92.316 98.045)" fill="#4E80EE"/></g><circle cx="32" cy="32" r="32" transform="translate(1031 483.172)" fill="#f2f2f2"/><path d="M32,2A30.008,30.008,0,0,0,20.323,59.643,30.008,30.008,0,0,0,43.677,4.357,29.81,29.81,0,0,0,32,2m0-2A32,32,0,1,1,0,32,32,32,0,0,1,32,0Z" transform="translate(1031 483.172)" fill="#090814"/><g transform="translate(0 0.172)"><path d="M535.492,334.3a10.661,10.661,0,0,0-17.712,0,9.561,9.561,0,0,0,17.712,0Z" transform="translate(536.364 171.086)" fill="#4E80EE"/><path d="M492.995,344.9a2.29,2.29,0,0,1-.44-.25,1.763,1.763,0,0,1-.484-.627,1.793,1.793,0,1,0-2.927.435,2,2,0,0,0,.425.342,1.234,1.234,0,0,1,.477.5,3.606,3.606,0,0,0,.829,1.089,7.246,7.246,0,0,0,1.136.8,16.559,16.559,0,0,0-.934,4.885,6.757,6.757,0,0,0-1.9.307,3.069,3.069,0,0,0-.882.44,2.12,2.12,0,0,0-.217-.015,1.8,1.8,0,1,0,1.681,2.427,1.146,1.146,0,0,1,.927-.749,4.19,4.19,0,0,1,.462-.03,16.083,16.083,0,0,0,2.135,6.661,5.239,5.239,0,0,0-1.985,2.712.75.75,0,0,0-.142.1,1.7,1.7,0,0,0-.21.195,1.793,1.793,0,1,0,3.009.587,1.176,1.176,0,0,1,.292-1.269,5.027,5.027,0,0,1,.425-.365,10.477,10.477,0,0,0,7.445,4.061V351.093A11.076,11.076,0,0,1,492.995,344.9Zm24.932,7.922a1.982,1.982,0,0,0-.217.015,3.385,3.385,0,0,0-.882-.44,6.707,6.707,0,0,0-1.9-.307,16.923,16.923,0,0,0-.934-4.882,7.245,7.245,0,0,0,1.136-.8,3.891,3.891,0,0,0,.859-1.141,1.054,1.054,0,0,1,.442-.437h0a1.793,1.793,0,1,0-2.5-.792,1.7,1.7,0,0,1-.484.627,4.714,4.714,0,0,1-.44.322,11,11,0,0,1-9.111,6.116v16.061a10.523,10.523,0,0,0,7.445-4.061c.157.125.29.237.4.342a1.214,1.214,0,0,1,.315,1.306,1.793,1.793,0,1,0,3.017-.582,1.7,1.7,0,0,0-.21-.195c-.082-.065-.142-.1-.142-.1a5.167,5.167,0,0,0-2-2.712,16.082,16.082,0,0,0,2.135-6.661,3.979,3.979,0,0,1,.442.03,1.2,1.2,0,0,1,.961.749,1.793,1.793,0,0,0,3.459-.544,1.821,1.821,0,0,0-1.8-1.913Z" transform="translate(559.998 162.176)" fill="#4E80EE"/></g><path d="M807.135,293.794h-153.5c-2.739,0-4.96-2.94-4.96-6.566s2.221-6.566,4.96-6.566h153.5c2.739,0,4.96,2.94,4.96,6.566S809.875,293.794,807.135,293.794Z" transform="translate(460.852 227.943)" fill="#4E80EE"/><circle cx="32" cy="32" r="32" transform="translate(1031 571.172)" fill="#f2f2f2"/><path d="M32,2A30.008,30.008,0,0,0,20.323,59.643,30.008,30.008,0,0,0,43.677,4.357,29.81,29.81,0,0,0,32,2m0-2A32,32,0,1,1,0,32,32,32,0,0,1,32,0Z" transform="translate(1031 571.172)" fill="#090814"/><path d="M18.723,2l1.074.008,1.03.028.5.022.968.057.925.077c7.838.761,11.121,3.9,11.984,11.549l.05.485.077.925.069,1.216.01.251.028,1.032.008,1.074L35.438,19.8l-.028,1.03-.022.5-.057.968-.077.925c-.761,7.838-3.9,11.121-11.549,11.984l-.485.05-.925.077-1.216.069-.251.01-1.032.028-1.074.008-1.074-.008-1.03-.028-.5-.022-.968-.057-.925-.077C6.388,34.494,3.1,31.353,2.242,23.705l-.05-.485L2.115,22.3,2.046,21.08l-.01-.251L2.008,19.8,2,19.265V18.182l.007-.532.028-1.03.022-.5.057-.968.077-.925c.761-7.838,3.9-11.121,11.549-11.984l.485-.05.925-.077,1.216-.069.251-.01,1.032-.028Q18.176,2,18.723,2Zm.017,21.741-.212.012a1.672,1.672,0,0,0,0,3.321l.2.012.212-.012a1.672,1.672,0,0,0,0-3.321ZM18.723,8.689a1.672,1.672,0,0,0-1.661,1.476l-.012.2V20.4l.012.2a1.672,1.672,0,0,0,3.321,0l.012-.2V10.362l-.012-.2a1.672,1.672,0,0,0-1.661-1.477Z" transform="translate(1043.999 584.172)" fill="#4E80EE"/><path d="M807.135,293.794h-153.5c-2.739,0-4.96-2.94-4.96-6.566s2.221-6.566,4.96-6.566h153.5c2.739,0,4.96,2.94,4.96,6.566S809.875,293.794,807.135,293.794Z" transform="translate(460.852 315.943)" fill="#4E80EE"/><path d="M624,.5H0v-1H624Z" transform="translate(648.5 287.5)" fill="#ccc"/><path d="M663.166,459.692a2.4,2.4,0,0,1-3.3.8L631.839,443.4a2.4,2.4,0,0,1,2.5-4.1l28.025,17.094A2.4,2.4,0,0,1,663.166,459.692Z" transform="translate(431.482 -98.039)" fill="#3f3d56"/><path d="M588.449,404.293a19.216,19.216,0,1,1-6.4-26.411A19.216,19.216,0,0,1,588.449,404.293Zm-28.709-17.511a14.412,14.412,0,1,0,19.808-4.8A14.412,14.412,0,0,0,559.741,386.782Z" transform="translate(478.174 -59.734)" fill="#3f3d56"/><g transform="translate(0.473 -0.816)"><path d="M520.977,283.537H486.841a4.371,4.371,0,0,1-4.366-4.366v-40.09a4.371,4.371,0,0,1,4.366-4.366H518.6l6.744,5.376v39.081A4.371,4.371,0,0,1,520.977,283.537Z" transform="translate(627.052 80.619)" fill="#090814"/><path d="M495.084,244.215a3.113,3.113,0,0,0-3.109,3.109v40.09a3.113,3.113,0,0,0,3.109,3.109H529.22a3.113,3.113,0,0,0,3.109-3.109V248.939l-5.927-4.724Z" transform="translate(618.809 72.376)" fill="#fff"/><path d="M616.6,322.782H601.062a.727.727,0,0,1,0-1.454H616.6a.727.727,0,1,1,0,1.454Z" transform="translate(524.786 5.465)" fill="#4E80EE"/><path d="M619.6,341.329H601.062a.727.727,0,1,1,0-1.454H619.6a.727.727,0,0,1,0,1.454Z" transform="translate(524.786 -10.627)" fill="#4E80EE"/><path d="M616.607,404.443H601.066a.727.727,0,0,0,0,1.454h15.541a.727.727,0,0,0,0-1.454Z" transform="translate(524.782 -66.651)" fill="#ccc"/><path d="M619.607,422.993h-18.54a.727.727,0,0,0,0,1.454h18.54a.727.727,0,0,0,0-1.454Z" transform="translate(524.782 -82.747)" fill="#ccc"/><path d="M616.6,489.018H601.062a.727.727,0,0,1,0-1.454H616.6a.727.727,0,1,1,0,1.454Z" transform="translate(524.786 -138.777)" fill="#ccc"/><path d="M619.6,507.565H601.062a.727.727,0,1,1,0-1.454H619.6a.727.727,0,0,1,0,1.454Z" transform="translate(524.786 -154.868)" fill="#ccc"/><ellipse cx="2.57" cy="2.57" rx="2.57" ry="2.57" transform="translate(1116.806 326.177)" fill="#4E80EE"/><path d="M544.63,402.356a2.57,2.57,0,0,1-2.569,2.571.55.55,0,0,1-.066,0,2.57,2.57,0,1,1,2.636-2.568Z" transform="translate(577.58 -62.611)" fill="#ccc"/><ellipse cx="2.57" cy="2.57" rx="2.57" ry="2.57" transform="translate(1116.806 348.173)" fill="#ccc"/><path d="M761.3,240.93h-5.283a1.454,1.454,0,0,1-1.454-1.454v-3.9a.091.091,0,0,1,.147-.071l6.646,5.265a.091.091,0,0,1-.056.162Z" transform="translate(390.964 79.953)" fill="#090814"/></g><g transform="translate(60.473 -0.816)"><path d="M520.977,283.537H486.841a4.371,4.371,0,0,1-4.366-4.366v-40.09a4.371,4.371,0,0,1,4.366-4.366H518.6l6.744,5.376v39.081A4.371,4.371,0,0,1,520.977,283.537Z" transform="translate(627.052 80.619)" fill="#090814"/><path d="M495.084,244.215a3.113,3.113,0,0,0-3.109,3.109v40.09a3.113,3.113,0,0,0,3.109,3.109H529.22a3.113,3.113,0,0,0,3.109-3.109V248.939l-5.927-4.724Z" transform="translate(618.809 72.376)" fill="#fff"/><path d="M616.6,322.782H601.062a.727.727,0,0,1,0-1.454H616.6a.727.727,0,1,1,0,1.454Z" transform="translate(524.786 5.465)" fill="#4E80EE"/><path d="M619.6,341.329H601.062a.727.727,0,1,1,0-1.454H619.6a.727.727,0,0,1,0,1.454Z" transform="translate(524.786 -10.627)" fill="#4E80EE"/><path d="M616.607,404.443H601.066a.727.727,0,0,0,0,1.454h15.541a.727.727,0,0,0,0-1.454Z" transform="translate(524.782 -66.651)" fill="#ccc"/><path d="M619.607,422.993h-18.54a.727.727,0,0,0,0,1.454h18.54a.727.727,0,0,0,0-1.454Z" transform="translate(524.782 -82.747)" fill="#ccc"/><path d="M616.6,489.018H601.062a.727.727,0,0,1,0-1.454H616.6a.727.727,0,1,1,0,1.454Z" transform="translate(524.786 -138.777)" fill="#ccc"/><path d="M619.6,507.565H601.062a.727.727,0,1,1,0-1.454H619.6a.727.727,0,0,1,0,1.454Z" transform="translate(524.786 -154.868)" fill="#ccc"/><ellipse cx="2.57" cy="2.57" rx="2.57" ry="2.57" transform="translate(1116.806 326.177)" fill="#4E80EE"/><path d="M544.63,402.356a2.57,2.57,0,0,1-2.569,2.571.55.55,0,0,1-.066,0,2.57,2.57,0,1,1,2.636-2.568Z" transform="translate(577.58 -62.611)" fill="#ccc"/><ellipse cx="2.57" cy="2.57" rx="2.57" ry="2.57" transform="translate(1116.806 348.173)" fill="#ccc"/><path d="M761.3,240.93h-5.283a1.454,1.454,0,0,1-1.454-1.454v-3.9a.091.091,0,0,1,.147-.071l6.646,5.265a.091.091,0,0,1-.056.162Z" transform="translate(390.964 79.953)" fill="#090814"/></g><g transform="translate(120.473 -0.816)"><path d="M520.977,283.537H486.841a4.371,4.371,0,0,1-4.366-4.366v-40.09a4.371,4.371,0,0,1,4.366-4.366H518.6l6.744,5.376v39.081A4.371,4.371,0,0,1,520.977,283.537Z" transform="translate(627.052 80.619)" fill="#090814"/><path d="M495.084,244.215a3.113,3.113,0,0,0-3.109,3.109v40.09a3.113,3.113,0,0,0,3.109,3.109H529.22a3.113,3.113,0,0,0,3.109-3.109V248.939l-5.927-4.724Z" transform="translate(618.809 72.376)" fill="#fff"/><path d="M616.6,322.782H601.062a.727.727,0,0,1,0-1.454H616.6a.727.727,0,1,1,0,1.454Z" transform="translate(524.786 5.465)" fill="#4E80EE"/><path d="M619.6,341.329H601.062a.727.727,0,1,1,0-1.454H619.6a.727.727,0,0,1,0,1.454Z" transform="translate(524.786 -10.627)" fill="#4E80EE"/><path d="M616.607,404.443H601.066a.727.727,0,0,0,0,1.454h15.541a.727.727,0,0,0,0-1.454Z" transform="translate(524.782 -66.651)" fill="#ccc"/><path d="M619.607,422.993h-18.54a.727.727,0,0,0,0,1.454h18.54a.727.727,0,0,0,0-1.454Z" transform="translate(524.782 -82.747)" fill="#ccc"/><path d="M616.6,489.018H601.062a.727.727,0,0,1,0-1.454H616.6a.727.727,0,1,1,0,1.454Z" transform="translate(524.786 -138.777)" fill="#ccc"/><path d="M619.6,507.565H601.062a.727.727,0,1,1,0-1.454H619.6a.727.727,0,0,1,0,1.454Z" transform="translate(524.786 -154.868)" fill="#ccc"/><ellipse cx="2.57" cy="2.57" rx="2.57" ry="2.57" transform="translate(1116.806 326.177)" fill="#4E80EE"/><path d="M544.63,402.356a2.57,2.57,0,0,1-2.569,2.571.55.55,0,0,1-.066,0,2.57,2.57,0,1,1,2.636-2.568Z" transform="translate(577.58 -62.611)" fill="#ccc"/><ellipse cx="2.57" cy="2.57" rx="2.57" ry="2.57" transform="translate(1116.806 348.173)" fill="#ccc"/><path d="M761.3,240.93h-5.283a1.454,1.454,0,0,1-1.454-1.454v-3.9a.091.091,0,0,1,.147-.071l6.646,5.265a.091.091,0,0,1-.056.162Z" transform="translate(390.964 79.953)" fill="#090814"/></g></g></svg>